<?xml version="1.0" encoding="UTF-8"?>
<svg xmlns="http://www.w3.org/2000/svg" xmlns:xlink="http://www.w3.org/1999/xlink" version="1.1" viewBox="0 0 512 512" width="512" height="512">
  <!-- Generator: Adobe Illustrator 30.3.0, SVG Export Plug-In . SVG Version: 2.1.3 Build 182)  -->
  <defs>
    <linearGradient id="linear-gradient" x1="452.6" y1="415.1" x2="245.1" y2="207.5" gradientUnits="userSpaceOnUse">
      <stop offset="0" stop-color="#3b82f6"/>
      <stop offset="1" stop-color="#1d4ed8"/>
    </linearGradient>
    <linearGradient id="linear-gradient1" x1="218.3" y1="356.5" x2="9.1" y2="147.3" xlink:href="#linear-gradient"/>
    <filter id="luminosity-invert" x="22" y="130" width="468" height="252" color-interpolation-filters="sRGB" filterUnits="userSpaceOnUse">
      <feColorMatrix result="cm" values="-1 0 0 0 1 0 -1 0 0 1 0 0 -1 0 1 0 0 0 1 0"/>
    </filter>
    <mask id="mask" x="22" y="130" width="468" height="252" maskUnits="userSpaceOnUse">
      <g filter="url(#luminosity-invert)">
        <image width="468" height="252" transform="translate(22 130)" xlink:href="logo square-1.png"/>
      </g>
    </mask>
  </defs>
  <g isolation="isolate">
    <g id="Layer_1">
      <g>
        <g>
          <path d="M210,379.8l110.4-247.7h56.6l110.8,247.7h-60.2l-90.6-218.7h22.6l-90.9,218.7h-58.7ZM265.2,326.8l15.2-43.5h127.4l15.6,43.5h-158.2Z" fill="url(#linear-gradient)"/>
          <polygon points="81.2 333.8 81.2 276.5 196.2 276.5 196.2 231.9 81.2 231.9 81.2 178.2 211.4 178.2 211.4 132.2 24.2 132.2 24.2 379.8 195 379.8 215.5 333.8 81.2 333.8" fill="url(#linear-gradient1)"/>
        </g>
        <g mask="url(#mask)">
          <g mix-blend-mode="screen" opacity=".5">
            <g>
              <path d="M210,379.8l110.4-247.7h56.6l110.8,247.7h-60.2l-90.6-218.7h22.6l-90.9,218.7h-58.7ZM265.2,326.8l15.2-43.5h127.4l15.6,43.5h-158.2Z" fill="#fff"/>
              <polygon points="81.2 333.8 81.2 276.5 196.2 276.5 196.2 231.9 81.2 231.9 81.2 178.2 211.4 178.2 211.4 132.2 24.2 132.2 24.2 379.8 195 379.8 215.5 333.8 81.2 333.8" fill="#fff"/>
            </g>
          </g>
        </g>
      </g>
    </g>
  </g>
</svg>