<?xml version="1.0" encoding="UTF-8"?>
<svg xmlns="http://www.w3.org/2000/svg" xmlns:xlink="http://www.w3.org/1999/xlink" version="1.1" viewBox="0 0 800 200">
  <!-- Generator: Adobe Illustrator 30.3.0, SVG Export Plug-In . SVG Version: 2.1.3 Build 182)  -->
  <defs>
    <linearGradient id="linear-gradient" x1="339.9" y1="197.2" x2="213.1" y2="70.4" gradientUnits="userSpaceOnUse">
      <stop offset="0" stop-color="#3b82f6"/>
      <stop offset="1" stop-color="#1d4ed8"/>
    </linearGradient>
    <linearGradient id="linear-gradient1" x1="196.7" y1="161.5" x2="68.8" y2="33.5" xlink:href="#linear-gradient"/>
    <filter id="luminosity-invert" x="76" y="22" width="288" height="156" color-interpolation-filters="sRGB" filterUnits="userSpaceOnUse">
      <feColorMatrix result="cm" values="-1 0 0 0 1 0 -1 0 0 1 0 0 -1 0 1 0 0 0 1 0"/>
    </filter>
    <mask id="mask" x="76" y="22" width="288" height="156" maskUnits="userSpaceOnUse">
      <g filter="url(#luminosity-invert)">
        <image width="288" height="156" transform="translate(76 22)" xlink:href="logo horizontal-1.png"/>
      </g>
    </mask>
  </defs>
  <g isolation="isolate">
    <g id="Layer_1">
      <g>
        <g>
          <path d="M191.7,175.7L259.1,24.3h34.6l67.7,151.4h-36.8l-55.4-133.7h13.8l-55.6,133.7h-35.9ZM225.4,143.3l9.3-26.6h77.9l9.5,26.6h-96.7Z" fill="url(#linear-gradient)"/>
          <polygon points="112.9 147.6 112.9 112.5 183.2 112.5 183.2 85.3 112.9 85.3 112.9 52.4 192.5 52.4 192.5 24.3 78 24.3 78 175.7 182.5 175.7 195 147.6 112.9 147.6" fill="url(#linear-gradient1)"/>
        </g>
        <g mask="url(#mask)">
          <g mix-blend-mode="screen" opacity=".5">
            <g>
              <path d="M191.7,175.7L259.1,24.3h34.6l67.7,151.4h-36.8l-55.4-133.7h13.8l-55.6,133.7h-35.9ZM225.4,143.3l9.3-26.6h77.9l9.5,26.6h-96.7Z" fill="#fff"/>
              <polygon points="112.9 147.6 112.9 112.5 183.2 112.5 183.2 85.3 112.9 85.3 112.9 52.4 192.5 52.4 192.5 24.3 78 24.3 78 175.7 182.5 175.7 195 147.6 112.9 147.6" fill="#fff"/>
            </g>
          </g>
        </g>
      </g>
      <g>
        <path d="M389.2,179.5c-2.5,0-4.9-.4-7.3-1.2-2.4-.8-4.4-1.8-5.8-3l6.5-10c1,.9,2.2,1.6,3.5,2.2,1.3.5,2.7.8,4.3.8s3.4-.4,4.7-1.3c1.3-.9,2.7-2.4,4-4.6l3.9-6.1,1.3-1.4,25.5-41.6h13.8l-32.1,51.5c-2.4,3.8-4.7,6.7-6.9,8.9-2.2,2.2-4.5,3.7-6.9,4.6-2.4.9-5.2,1.3-8.3,1.3ZM399.9,163.3l-11.6-50.1h14l8.8,40.4-11.2,9.8Z" fill="#e2e8f0"/>
        <path d="M460,162.1c-3.7,0-7.1-.9-10.3-2.6-3.2-1.7-5.7-4.2-7.6-7.4-1.9-3.2-2.9-7.1-2.9-11.7s.7-7.8,2-11.2c1.3-3.4,3.2-6.4,5.7-8.9,2.5-2.5,5.3-4.5,8.5-5.9,3.2-1.4,6.7-2.1,10.4-2.1s7.4.7,10.3,2.2c2.9,1.5,5,3.8,6.4,7,1.4,3.1,1.9,7.2,1.5,12.2-.3,5.7-1.5,10.7-3.5,14.9-2,4.3-4.8,7.6-8.2,9.9s-7.5,3.5-12.3,3.5ZM464.3,150.5c2.8,0,5.2-.7,7.3-2,2.1-1.3,3.8-3.2,5-5.6,1.2-2.4,1.8-5.1,1.8-8.3s-1-5.9-2.9-7.8c-1.9-1.9-4.7-2.9-8.1-2.9s-5.1.7-7.3,2-3.8,3.2-5.1,5.6c-1.2,2.4-1.8,5.1-1.8,8.3s1,5.9,2.9,7.8c1.9,1.9,4.6,2.9,8.1,2.9ZM473.9,161.4l1.9-9.6,3.1-14.4,1.9-14.4,2-10h14l-9.6,48.3h-13.3Z" fill="#e2e8f0"/>
        <path d="M496.6,161.4l1.7-8.4,34.5-33.7,2.2,4.7h-30.2l2.2-10.8h41.4l-1.6,8.4-34.5,33.7-2.4-4.7h31.9l-2.2,10.8h-43.1Z" fill="#e2e8f0"/>
        <path d="M548.8,161.4l9.6-48.3h13.9l-9.6,48.3h-13.9Z" fill="#e2e8f0"/>
        <path d="M575.7,161.4l13.3-66.6h14l-13.3,66.6h-14Z" fill="#e2e8f0"/>
        <path d="M602.7,161.4l9.6-48.3h13.9l-9.6,48.3h-13.9Z" fill="#e2e8f0"/>
        <path d="M699.7,112.4c4.1,0,7.5.9,10.3,2.6,2.8,1.7,4.8,4.2,6,7.5,1.2,3.3,1.3,7.4.3,12.2l-5.3,26.7h-14l5.1-25.7c.8-3.6.5-6.3-.7-8.3-1.3-1.9-3.4-2.9-6.5-2.9s-6,1-8.2,2.9c-2.2,1.9-3.6,5-4.5,9.2l-4.9,24.8h-14l5.1-25.7c.7-3.6.5-6.3-.8-8.3-1.2-1.9-3.4-2.9-6.5-2.9s-6,1-8.2,2.9c-2.2,1.9-3.7,5.1-4.6,9.4l-4.8,24.6h-14l9.6-48.3h13.3l-2.5,12.3-2.2-2.8c2.2-3.5,5-6,8.3-7.7,3.3-1.7,6.8-2.5,10.5-2.5s5.7.5,8.1,1.6c2.4,1.1,4.4,2.7,5.9,4.8,1.5,2.1,2.4,4.8,2.6,7.9l-5.4-1.3c2.4-4.2,5.5-7.5,9.2-9.7,3.7-2.2,8-3.3,12.8-3.3Z" fill="#e2e8f0"/>
      </g>
    </g>
  </g>
</svg>